<?xml version="1.0" encoding="utf-8"?>
<!-- Generator: Adobe Illustrator 22.0.1, SVG Export Plug-In . SVG Version: 6.00 Build 0)  -->
<svg version="1.1" xmlns="http://www.w3.org/2000/svg" xmlns:xlink="http://www.w3.org/1999/xlink" x="0px" y="0px"
	 viewBox="0 0 149 163.5" style="enable-background:new 0 0 149 163.5;" xml:space="preserve">
<style type="text/css">
	.st0{display:none;}
	.st1{display:inline;fill:#F2F8FB;stroke:#0479EC;stroke-width:4;}
	.st2{display:inline;fill:#0479EC;}
	.st3{display:inline;fill:#D3E5F7;}
	.st4{display:inline;fill:#FFFFFF;stroke:#0479EC;stroke-width:4;}
	.st5{display:inline;}
	.st6{fill:#FFFFFF;}
	.st7{fill:none;stroke:#0686D8;stroke-width:1.5;stroke-miterlimit:10;}
	.st8{fill:#D2E9F7;}
	.st9{fill:#5FB0E5;}
	.st10{display:none;fill:#5FB0E5;}
	.st11{display:none;fill:none;stroke:#0686D8;stroke-width:1.5;stroke-miterlimit:10;}
	.st12{fill:#9ECFEF;}
	.st13{fill:#F1F2F2;}
</style>
<g id="power_features_icon" class="st0">
	<path id="Rounded_Rectangle_17" class="st1" d="M7,25.1h135c2.8,0,5,2.2,5,5v109c0,0.1-2.2,0-5,0H7c-2.8,0-5-0.1-5,0v-109
		C2,27.4,4.2,25.1,7,25.1z"/>
	<rect x="1" y="46.1" class="st2" width="148" height="4"/>
	<circle class="st2" cx="14.5" cy="36.6" r="3.5"/>
	<circle id="Ellipse_10_copy" class="st2" cx="23.5" cy="36.6" r="3.5"/>
	<circle id="Ellipse_10_copy_2" class="st2" cx="32.5" cy="36.6" r="3.5"/>
	<path id="Rounded_Rectangle_18" class="st3" d="M17,58.1h9c2.8,0,5,2.2,5,5v9c0,2.8-2.2,5-5,5h-9c-2.8,0-5-2.2-5-5v-9
		C12,60.4,14.2,58.1,17,58.1z"/>
	<path id="Rounded_Rectangle_18_copy" class="st3" d="M17,83.1h9c2.8,0,5,2.2,5,5v9c0,2.8-2.2,5-5,5h-9c-2.8,0-5-2.2-5-5v-9
		C12,85.4,14.2,83.1,17,83.1z"/>
	<path id="Rounded_Rectangle_18_copy_2" class="st3" d="M17,107.1h9c2.8,0,5,2.2,5,5v9c0,2.8-2.2,5-5,5h-9c-2.8,0-5-2.2-5-5v-9
		C12,109.4,14.2,107.1,17,107.1z"/>
	<path id="Rounded_Rectangle_18_copy_3" class="st3" d="M43,58.1h9c2.8,0,5,2.2,5,5v9c0,2.8-2.2,5-5,5h-9c-2.8,0-5-2.2-5-5v-9
		C38,60.4,40.2,58.1,43,58.1z"/>
	<path id="Rounded_Rectangle_18_copy_3-2" class="st3" d="M43,83.1h9c2.8,0,5,2.2,5,5v9c0,2.8-2.2,5-5,5h-9c-2.8,0-5-2.2-5-5v-9
		C38,85.4,40.2,83.1,43,83.1z"/>
	<path id="Rounded_Rectangle_18_copy_3-3" class="st3" d="M43,107.1h9c2.8,0,5,2.2,5,5v9c0,2.8-2.2,5-5,5h-9c-2.8,0-5-2.2-5-5v-9
		C38,109.4,40.2,107.1,43,107.1z"/>
	<path id="Rounded_Rectangle_18_copy_4" class="st3" d="M68,58.1h9c2.8,0,5,2.2,5,5v9c0,2.8-2.2,5-5,5h-9c-2.8,0-5-2.2-5-5v-9
		C63,60.4,65.2,58.1,68,58.1z"/>
	<path id="Rounded_Rectangle_18_copy_4-2" class="st3" d="M68,83.1h9c2.8,0,5,2.2,5,5v9c0,2.8-2.2,5-5,5h-9c-2.8,0-5-2.2-5-5v-9
		C63,85.4,65.2,83.1,68,83.1z"/>
	<path id="Rounded_Rectangle_18_copy_4-3" class="st3" d="M68,107.1h9c2.8,0,5,2.2,5,5v9c0,2.8-2.2,5-5,5h-9c-2.8,0-5-2.2-5-5v-9
		C63,109.4,65.2,107.1,68,107.1z"/>
	<path id="Rounded_Rectangle_18_copy_5" class="st3" d="M94,58.1h9c2.8,0,5,2.2,5,5v9c0,2.8-2.2,5-5,5h-9c-2.8,0-5-2.2-5-5v-9
		C89,60.4,91.2,58.1,94,58.1z"/>
	<path id="Rounded_Rectangle_18_copy_5-2" class="st3" d="M94,83.1h9c2.8,0,5,2.2,5,5v9c0,2.8-2.2,5-5,5h-9c-2.8,0-5-2.2-5-5v-9
		C89,85.4,91.2,83.1,94,83.1z"/>
	<path id="Rounded_Rectangle_18_copy_5-3" class="st3" d="M94,107.1h9c2.8,0,5,2.2,5,5v9c0,2.8-2.2,5-5,5h-9c-2.8,0-5-2.2-5-5v-9
		C89,109.4,91.2,107.1,94,107.1z"/>
	<path id="Rounded_Rectangle_18_copy_6" class="st3" d="M119,58.1h9c2.8,0,5,2.2,5,5v9c0,2.8-2.2,5-5,5h-9c-2.8,0-5-2.2-5-5v-9
		C114,60.4,116.2,58.1,119,58.1z"/>
	<path id="Rounded_Rectangle_18_copy_6-2" class="st3" d="M119,83.1h9c2.8,0,5,2.2,5,5v9c0,2.8-2.2,5-5,5h-9c-2.8,0-5-2.2-5-5v-9
		C114,85.4,116.2,83.1,119,83.1z"/>
	<path id="Rounded_Rectangle_18_copy_6-3" class="st3" d="M119,107.1h9c2.8,0,5,2.2,5,5v9c0,2.8-2.2,5-5,5h-9c-2.8,0-5-2.2-5-5v-9
		C114,109.4,116.2,107.1,119,107.1z"/>
	<path class="st4" d="M41,92.1l66-82l-23,67h24l-62,76l22-61H41z"/>
</g>
<g id="Layer_2" class="st0">
	<g id="XMLID_195_" class="st5">
		<path id="XMLID_217_" class="st6" d="M119.7,163.5l4.6-22.5c0.9-4.5-3.1-8.6-8.5-8.6H26.5c-5.4,0-9.4,4.1-8.5,8.6l4.6,22.5H119.7z
			"/>
		<path id="XMLID_215_" class="st7" d="M22.6,163.5l-4.7-23c-0.9-4.2,2.9-8.1,8-8.1h90.6c5,0,8.8,3.9,8,8.1l-4.7,23"/>
		<line id="XMLID_214_" class="st7" x1="71.1" y1="65.6" x2="71.1" y2="134.5"/>
		<ellipse id="XMLID_425_" class="st8" cx="71.2" cy="36.9" rx="43.4" ry="36.9"/>
		<path id="XMLID_213_" class="st7" d="M108,17.3c4.2,5.7,6.7,12.4,6.7,19.7c0,20.4-19.5,36.9-43.4,36.9c-24,0-43.4-16.5-43.4-36.9
			C27.8,16.5,47.2,0,71.2,0c4.7,0,9.1,0.6,13.3,1.8"/>
		<path id="XMLID_212_" class="st7" d="M92.3,4.6c3,1.4,5.8,3.1,8.3,5.1"/>
		<g id="XMLID_415_">
			<path id="XMLID_417_" class="st7" d="M88.6,22.9H67.1c-4.5,0-8.2,3.1-8.2,7l0,0c0,3.9,3.7,7,8.2,7H76c4.5,0,8.2,3.1,8.2,7l0,0
				c0,3.9-3.7,7-8.2,7H53.8"/>
			<line id="XMLID_416_" class="st7" x1="71.2" y1="11.4" x2="71.2" y2="62.5"/>
		</g>
		<path id="XMLID_206_" class="st9" d="M122.3,78.9c0,0,1.6,18.6-10.9,29.3c-12.5,10.6-34.4,9.3-34.4,9.3s-1.6-18.6,10.9-29.3
			C100.4,77.5,122.3,78.9,122.3,78.9z"/>
		<path id="XMLID_198_" class="st7" d="M122.3,78.9c0,0,1.6,18.6-10.9,29.3c-12.5,10.6-34.4,9.3-34.4,9.3s-1.6-18.6,10.9-29.3
			C100.4,77.5,122.3,78.9,122.3,78.9z"/>
		<path id="XMLID_197_" class="st9" d="M66.8,117.4c0,0,1.6-18.6-10.9-29.3c-12.5-10.6-34.4-9.3-34.4-9.3s-1.6,18.6,10.9,29.3
			C44.8,118.8,66.8,117.4,66.8,117.4z"/>
		<path id="XMLID_196_" class="st7" d="M66.8,117.4c0,0,1.6-18.6-10.9-29.3c-12.5-10.6-34.4-9.3-34.4-9.3s-1.6,18.6,10.9,29.3
			C44.8,118.8,66.8,117.4,66.8,117.4z"/>
	</g>
</g>
<g id="Invest" class="st0">
	<g class="st5">
		<path id="XMLID_1000_" class="st8" d="M57.9,10.8c-0.2,3.6-3,6.4-6.4,6.2l-24.4-1.3c-3.4-0.2-5.9-3.2-5.8-6.9l0,0
			c0.2-3.6,3-6.4,6.4-6.2l24.4,1.3C55.4,4.1,58,7.2,57.9,10.8L57.9,10.8z"/>
		<path id="XMLID_999_" class="st8" d="M29.9,5.2c2,2.2,1.9,5.8-0.1,7.9l-12.3,13c-2.1,2.1-5.3,2.1-7.3-0.1l0,0
			c-2-2.2-1.9-5.8,0.1-7.9l12.3-13C24.6,2.9,27.9,3,29.9,5.2L29.9,5.2z"/>
		<path id="XMLID_998_" class="st8" d="M7.2,47.6L9,20.5l8.2,4.2c0,0,1.7,12.3-0.1,15.2C15.7,42.3,7.2,47.6,7.2,47.6z"/>
		<path id="XMLID_1008_" class="st7" d="M23,4.7c-0.2,0.1-0.3,0.3-0.5,0.4l-12.3,13c-1.3,1.4-1.8,3.3-1.5,5.1l-1.5,23
			c0,0.6,0.6,1,1,0.7c2.4-1.5,7.7-5.1,8.8-6.9c1.4-2.3,0.6-10.4,0.2-13.7c0,0,0.1-0.1,0.1-0.1l9.8-10.3L51.2,17
			c3,0.2,5.9-1.9,6.5-5.1c0.8-4.1-2-7.8-5.6-8L27.7,2.7C25.9,2.6,24.2,3.4,23,4.7z"/>
		<path id="XMLID_1002_" class="st6" d="M95.3,46.9L76,59.8l-21.3,1.7c0,0-1.5-8.4,4.5-10.7L71,48.4c0,0,0.9-13.7,0.9-14.8
			c0.1-2.7-17.7-13.7-20.2-13.4c-1.5,0.2-21.4,1.9-21.4,1.9l-4.1,16.3c0,0,0,7.9,1.3,11.1c4.3,10.5-5.7,10-5.7,10l-6.6-22.7l5-24.5
			l30-11.1l45.1,10.1V46.9z"/>
		<path id="XMLID_997_" class="st7" d="M95.3,46.9L76,59.8l-21.3,1.7c0,0-1.5-8.4,4.5-10.7L71,48.4c0,0,0.9-13.7,0.9-14.8
			c0.1-2.7-17.7-13.7-20.2-13.4c-1.5,0.2-21.4,1.9-21.4,1.9l-4.1,16.3c0,0,0,7.9,1.3,11.1c4.3,10.5-5.7,10-5.7,10l-6.6-22.7l5-24.5
			l30-11.1l45.1,10.1V46.9z"/>
		<path id="XMLID_269_" class="st10" d="M178.2,207.5V62.4c0-22.8-18.2-41.2-40.6-41.2H87.3H68.5c-1.4,0-2.5,1.1-2.5,2.5v23
			c0,1.4,1.1,2.5,2.5,2.5h18.8l43.6,0.2c8.8,0,15.8,7.3,15.8,16.2v141.9"/>
		<path id="XMLID_273_" class="st11" d="M178.2,124.7V62.4c0-22.8-18.2-41.2-40.6-41.2H87.3H68.5c-1.4,0-2.5,1.1-2.5,2.5v23
			c0,1.4,1.1,2.5,2.5,2.5h18.8l43.6,0.2c8.8,0,15.8,7.3,15.8,16.2v141.9"/>
		<line id="XMLID_398_" class="st7" x1="35.3" y1="55" x2="35.3" y2="74.9"/>
		<line id="XMLID_271_" class="st7" x1="45" y1="40" x2="45" y2="59.9"/>
		<line id="XMLID_400_" class="st7" x1="54.7" y1="65.8" x2="54.7" y2="78.5"/>
		<line id="XMLID_270_" class="st7" x1="25.6" y1="68.5" x2="25.6" y2="81.2"/>
		<rect x="95.3" y="11.4" class="st7" width="51.6" height="36.2"/>
		<rect x="96" y="12.1" class="st9" width="50.8" height="34.9"/>
	</g>
	<g id="XMLID_274_" class="st5">
		<path id="XMLID_302_" class="st8" d="M71.4,118.1l0.7,8.6c0,0.6-0.6,1.1-1.2,0.8l-16.5-7.8c-0.5-0.2-0.5-0.9-0.1-1.2l7.6-5
			C65.7,111,71,113.5,71.4,118.1z"/>
		<path id="XMLID_301_" class="st7" d="M71.4,118.1l0.7,8.6c0,0.6-0.6,1.1-1.2,0.8l-16.5-7.8c-0.5-0.2-0.5-0.9-0.1-1.2l7.6-5
			C65.7,111,71,113.5,71.4,118.1z"/>
		<path id="XMLID_300_" class="st8" d="M15.3,118.1l-0.7,8.6c0,0.6,0.6,1.1,1.2,0.8l16.5-7.8c0.5-0.2,0.5-0.9,0.1-1.2l-7.6-5
			C21,111,15.7,113.5,15.3,118.1z"/>
		<path id="XMLID_299_" class="st7" d="M15.3,118.1l-0.7,8.6c0,0.6,0.6,1.1,1.2,0.8l16.5-7.8c0.5-0.2,0.5-0.9,0.1-1.2l-7.6-5
			C21,111,15.7,113.5,15.3,118.1z"/>
		<path id="XMLID_291_" class="st6" d="M43.2,83.8c-6.7,0.1-12,5.5-11.9,12c0.1,6.5,5.7,11.6,12.3,11.5c6.7-0.1,12-5.5,11.9-12
			C55.4,88.9,49.9,83.7,43.2,83.8z"/>
		<path id="XMLID_290_" class="st7" d="M49.9,85.4c-1.9-1.1-4.1-1.7-6.5-1.7c-6.7,0.1-12,5.5-11.9,12c0.1,6.5,5.7,11.6,12.3,11.5
			c6.7-0.1,12-5.5,11.9-12c0-1.3-0.3-2.5-0.7-3.6"/>
		<path id="XMLID_289_" class="st7" d="M50.9,94.7c-0.5-0.8-1.1-1.5-1.7-2.2"/>
		<g id="XMLID_286_">
			<path id="XMLID_288_" class="st7" d="M48.5,91h-6c-1.3,0-2.3,1-2.3,2.2l0,0c0,1.2,1,2.2,2.3,2.2h2.5c1.3,0,2.3,1,2.3,2.2l0,0
				c0,1.2-1,2.2-2.3,2.2h-6.2"/>
			<line id="XMLID_287_" class="st7" x1="43.6" y1="87.4" x2="43.6" y2="103.6"/>
		</g>
		<polygon id="XMLID_632_" class="st12" points="38.6,163 30.5,163 29.7,151.4 38.6,151.4 		"/>
		<polygon id="XMLID_606_" class="st12" points="49.7,163 57.8,163 58.6,151.4 49.7,151.4 		"/>
		<polygon id="XMLID_575_" class="st7" points="38.6,163 30.5,163 29.7,151.4 38.6,151.4 		"/>
		<polygon id="XMLID_524_" class="st7" points="49.7,163 57.8,163 58.6,151.4 49.7,151.4 		"/>
		<ellipse id="XMLID_285_" class="st6" cx="44.3" cy="136.4" rx="24.7" ry="21.8"/>
		<path id="XMLID_284_" class="st8" d="M51.3,141.2c0,3.9-3.3,7-7.3,7c-4,0-7.3-3.2-7.3-7c0-3.9,3.3-7,7.3-7
			C48,134.2,51.3,137.3,51.3,141.2z"/>
		<ellipse id="XMLID_283_" class="st7" cx="44.3" cy="136.4" rx="24.7" ry="21.8"/>
		<path id="XMLID_282_" class="st7" d="M51.3,150.2c-1.9,1.8-4.4,2.9-7.3,2.9c-2.8,0-5.4-1.1-7.3-2.9"/>
		<path id="XMLID_281_" class="st7" d="M51.3,141.2c0,3.9-3.3,7-7.3,7c-4,0-7.3-3.2-7.3-7c0-3.9,3.3-7,7.3-7
			C48,134.2,51.3,137.3,51.3,141.2z"/>
		<g id="XMLID_278_">
			<path id="XMLID_280_" class="st7" d="M32.6,131.4c0-1.8,1.5-3.3,3.4-3.3c1.9,0,3.4,1.5,3.4,3.3"/>
			<path id="XMLID_279_" class="st7" d="M48.5,131.4c0-1.8,1.5-3.3,3.4-3.3s3.4,1.5,3.4,3.3"/>
		</g>
		<line id="XMLID_277_" class="st7" x1="40.1" y1="141.6" x2="42.4" y2="141.6"/>
		<line id="XMLID_275_" class="st7" x1="46" y1="141.6" x2="48.2" y2="141.6"/>
	</g>
</g>
<g id="Layer_5">
	<g id="XMLID_78_">
		<g id="XMLID_79_">
			<path id="XMLID_100_" class="st6" d="M138,161.5H15.8c-1.1,0-2-0.9-2-2V5.3c0-1.1,0.9-2,2-2H138c1.1,0,2,0.9,2,2v154.2
				C140,160.6,139.1,161.5,138,161.5z"/>
			<path id="XMLID_99_" class="st7" d="M119.5,3.3h11.7c4.9,0,8.9,4,8.9,8.9v140.4c0,4.9-4,8.9-8.9,8.9H22.7c-4.9,0-8.9-4-8.9-8.9
				V12.2c0-4.9,4-8.9,8.9-8.9h75.8"/>
			<line id="XMLID_98_" class="st7" x1="104.8" y1="3.3" x2="115.8" y2="3.3"/>
			<line id="XMLID_97_" class="st7" x1="62.2" y1="15.2" x2="91.6" y2="15.2"/>
			<path id="XMLID_96_" class="st7" d="M81.7,148.6c0,2.6-2.1,4.8-4.8,4.8c-2.6,0-4.8-2.1-4.8-4.8c0-2.6,2.1-4.8,4.8-4.8
				C79.6,143.8,81.7,145.9,81.7,148.6z"/>
			<rect id="XMLID_95_" x="23.7" y="26.2" class="st8" width="106.4" height="112"/>
		</g>
	</g>
	<g id="XMLID_101_">
		<path id="XMLID_118_" class="st13" d="M85.7,76.7h1.2c0.9-2.7,2.1-6.6,2.1-8.9c0-1.1,0.1-2.7,0-4.3c0,0.4,0,0.7,0,1
			C89,68.4,85.7,76.7,85.7,76.7z"/>
		<path id="XMLID_747_" class="st7" d="M104.8,95.8h6.8c2.2,0,4-1.8,4-4l0,0c0-2.2-1.8-4-4-4h-6.8"/>
		<path id="XMLID_746_" class="st7" d="M97.8,103.8h9.6c2.2,0,4-1.8,4-4l0,0c0-2.2-1.8-4-4-4h-9.6"/>
		<path id="XMLID_745_" class="st7" d="M99.5,103.8h3.7c2.2,0,4,1.8,4,4l0,0c0,2.2-1.8,4-4,4H80.7c-1,0-2-0.4-2.7-1.1l-4-4
			c-0.6-0.6-1.4-1-2.3-1h-1"/>
		<path id="XMLID_116_" class="st7" d="M97.8,87.9H110c2.2,0,4-1.8,4-4l0,0c0-2.2-1.8-4-4-4H94.9h-9.6c0,0,3.3-8.2,3.3-12.1
			c0-1.8,0.4-5.4-0.7-7.1c-0.4-0.7-3.6-0.7-4.1,0c0,0-3,9.4-5,12.1c-1.1,1.6-5.5,7.2-5.5,7.2h-4.2"/>
		<line id="XMLID_114_" class="st7" x1="47.8" y1="75.6" x2="52.2" y2="75.6"/>
		<path id="XMLID_113_" class="st7" d="M61.8,75.6h4.8c1.8,0,3.3,1.5,3.3,3.3v27.2c0,1.8-1.5,3.3-3.3,3.3H47.8"/>
		<line id="XMLID_112_" class="st7" x1="53.5" y1="75.6" x2="58.5" y2="75.6"/>
	</g>
</g>
<g id="Layer_4" class="st0">
	<g id="XMLID_633_" class="st5">
		<path id="XMLID_634_" class="st6" d="M11.2,160.9h104.4V35.5c0-1.2-1-2.2-2.2-2.2h-100c-1.2,0-2.2,1-2.2,2.2V160.9z"/>
		<path id="XMLID_630_" class="st7" d="M57,33.3H29.1h-8.9c-5,0-9.1,4.1-9.1,9.1v117"/>
		<line id="XMLID_631_" class="st7" x1="115.6" y1="160.9" x2="115.6" y2="96.4"/>
		<rect id="XMLID_629_" x="19.8" y="52.4" class="st8" width="87.2" height="108.5"/>
		<line id="XMLID_628_" class="st7" x1="52.3" y1="44.7" x2="57.5" y2="44.7"/>
		<path id="XMLID_854_" class="st6" d="M106.3,96.4l12.1-17.6c5.1-1.9,9.8-4.9,13.9-9c15.5-15.5,15.5-40.7,0-56.2
			c-15.5-15.5-40.7-15.5-56.2,0c-15.5,15.5-15.5,40.7,0,56.2c5.5,5.5,12.2,9,19.2,10.6L106.3,96.4z"/>
		<path id="XMLID_399_" class="st7" d="M106.3,96.4l12.1-17.6c5.1-1.9,9.8-4.9,13.9-9c15.5-15.5,15.5-40.7,0-56.2
			c-15.5-15.5-40.7-15.5-56.2,0c-15.5,15.5-15.5,40.7,0,56.2c5.5,5.5,12.2,9,19.2,10.6L106.3,96.4z"/>
		<polygon id="XMLID_626_" class="st9" points="19.7,130.3 19.7,159.5 38.5,159.4 38.5,114.5 		"/>
		<polygon id="XMLID_625_" class="st9" points="55,121.7 54.9,121.7 54.9,159.4 76.6,159.3 76.6,105.6 		"/>
		<polygon id="XMLID_623_" class="st12" points="38.7,114.4 38.5,114.5 38.5,159.4 54.9,159.4 54.9,121.7 		"/>
		<polygon id="XMLID_622_" class="st9" points="107,98.6 90,113.2 90,159.3 107,159.2 		"/>
		<polygon id="XMLID_621_" class="st12" points="90,113.2 76.6,105.6 76.6,159.3 90,159.3 90,113.2 		"/>
		<polyline id="XMLID_619_" class="st7" points="107,99.6 105.8,99.6 90,113.2 76.6,105.6 54.9,121.7 38.5,114.5 21.5,129 19.7,129 
					"/>
		<g id="XMLID_657_">
			<path id="XMLID_659_" class="st7" d="M117.5,26.8H99.6c-3.8,0-6.8,3.1-6.8,6.8l0,0c0,3.8,3.1,6.8,6.8,6.8h7.4
				c3.8,0,6.8,3.1,6.8,6.8l0,0c0,3.8-3.1,6.8-6.8,6.8H88.6"/>
			<line id="XMLID_658_" class="st7" x1="103" y1="15.5" x2="103" y2="65.4"/>
		</g>
	</g>
</g>
</svg>
