<?xml version="1.0" encoding="utf-8"?>
<!-- Generator: Adobe Illustrator 22.0.1, SVG Export Plug-In . SVG Version: 6.00 Build 0)  -->
<svg version="1.1" xmlns="http://www.w3.org/2000/svg" xmlns:xlink="http://www.w3.org/1999/xlink" x="0px" y="0px"
	 viewBox="0 0 149 163.5" style="enable-background:new 0 0 149 163.5;" xml:space="preserve">
<style type="text/css">
	.st0{display:none;}
	.st1{display:inline;fill:#F2F8FB;stroke:#0479EC;stroke-width:4;}
	.st2{display:inline;fill:#0479EC;}
	.st3{display:inline;fill:#D3E5F7;}
	.st4{display:inline;fill:#FFFFFF;stroke:#0479EC;stroke-width:4;}
	.st5{display:inline;}
	.st6{fill:#FFFFFF;}
	.st7{fill:none;stroke:#0686D8;stroke-width:1.5;stroke-miterlimit:10;}
	.st8{fill:#D2E9F7;}
	.st9{fill:#5FB0E5;}
	.st10{fill:#9ECFEF;}
</style>
<g id="power_features_icon" class="st0">
	<path id="Rounded_Rectangle_17" class="st1" d="M7,25.1h135c2.8,0,5,2.2,5,5v109c0,0.1-2.2,0-5,0H7c-2.8,0-5-0.1-5,0v-109
		C2,27.4,4.2,25.1,7,25.1z"/>
	<rect x="1" y="46.1" class="st2" width="148" height="4"/>
	<circle class="st2" cx="14.5" cy="36.6" r="3.5"/>
	<circle id="Ellipse_10_copy" class="st2" cx="23.5" cy="36.6" r="3.5"/>
	<circle id="Ellipse_10_copy_2" class="st2" cx="32.5" cy="36.6" r="3.5"/>
	<path id="Rounded_Rectangle_18" class="st3" d="M17,58.1h9c2.8,0,5,2.2,5,5v9c0,2.8-2.2,5-5,5h-9c-2.8,0-5-2.2-5-5v-9
		C12,60.4,14.2,58.1,17,58.1z"/>
	<path id="Rounded_Rectangle_18_copy" class="st3" d="M17,83.1h9c2.8,0,5,2.2,5,5v9c0,2.8-2.2,5-5,5h-9c-2.8,0-5-2.2-5-5v-9
		C12,85.4,14.2,83.1,17,83.1z"/>
	<path id="Rounded_Rectangle_18_copy_2" class="st3" d="M17,107.1h9c2.8,0,5,2.2,5,5v9c0,2.8-2.2,5-5,5h-9c-2.8,0-5-2.2-5-5v-9
		C12,109.4,14.2,107.1,17,107.1z"/>
	<path id="Rounded_Rectangle_18_copy_3" class="st3" d="M43,58.1h9c2.8,0,5,2.2,5,5v9c0,2.8-2.2,5-5,5h-9c-2.8,0-5-2.2-5-5v-9
		C38,60.4,40.2,58.1,43,58.1z"/>
	<path id="Rounded_Rectangle_18_copy_3-2" class="st3" d="M43,83.1h9c2.8,0,5,2.2,5,5v9c0,2.8-2.2,5-5,5h-9c-2.8,0-5-2.2-5-5v-9
		C38,85.4,40.2,83.1,43,83.1z"/>
	<path id="Rounded_Rectangle_18_copy_3-3" class="st3" d="M43,107.1h9c2.8,0,5,2.2,5,5v9c0,2.8-2.2,5-5,5h-9c-2.8,0-5-2.2-5-5v-9
		C38,109.4,40.2,107.1,43,107.1z"/>
	<path id="Rounded_Rectangle_18_copy_4" class="st3" d="M68,58.1h9c2.8,0,5,2.2,5,5v9c0,2.8-2.2,5-5,5h-9c-2.8,0-5-2.2-5-5v-9
		C63,60.4,65.2,58.1,68,58.1z"/>
	<path id="Rounded_Rectangle_18_copy_4-2" class="st3" d="M68,83.1h9c2.8,0,5,2.2,5,5v9c0,2.8-2.2,5-5,5h-9c-2.8,0-5-2.2-5-5v-9
		C63,85.4,65.2,83.1,68,83.1z"/>
	<path id="Rounded_Rectangle_18_copy_4-3" class="st3" d="M68,107.1h9c2.8,0,5,2.2,5,5v9c0,2.8-2.2,5-5,5h-9c-2.8,0-5-2.2-5-5v-9
		C63,109.4,65.2,107.1,68,107.1z"/>
	<path id="Rounded_Rectangle_18_copy_5" class="st3" d="M94,58.1h9c2.8,0,5,2.2,5,5v9c0,2.8-2.2,5-5,5h-9c-2.8,0-5-2.2-5-5v-9
		C89,60.4,91.2,58.1,94,58.1z"/>
	<path id="Rounded_Rectangle_18_copy_5-2" class="st3" d="M94,83.1h9c2.8,0,5,2.2,5,5v9c0,2.8-2.2,5-5,5h-9c-2.8,0-5-2.2-5-5v-9
		C89,85.4,91.2,83.1,94,83.1z"/>
	<path id="Rounded_Rectangle_18_copy_5-3" class="st3" d="M94,107.1h9c2.8,0,5,2.2,5,5v9c0,2.8-2.2,5-5,5h-9c-2.8,0-5-2.2-5-5v-9
		C89,109.4,91.2,107.1,94,107.1z"/>
	<path id="Rounded_Rectangle_18_copy_6" class="st3" d="M119,58.1h9c2.8,0,5,2.2,5,5v9c0,2.8-2.2,5-5,5h-9c-2.8,0-5-2.2-5-5v-9
		C114,60.4,116.2,58.1,119,58.1z"/>
	<path id="Rounded_Rectangle_18_copy_6-2" class="st3" d="M119,83.1h9c2.8,0,5,2.2,5,5v9c0,2.8-2.2,5-5,5h-9c-2.8,0-5-2.2-5-5v-9
		C114,85.4,116.2,83.1,119,83.1z"/>
	<path id="Rounded_Rectangle_18_copy_6-3" class="st3" d="M119,107.1h9c2.8,0,5,2.2,5,5v9c0,2.8-2.2,5-5,5h-9c-2.8,0-5-2.2-5-5v-9
		C114,109.4,116.2,107.1,119,107.1z"/>
	<path class="st4" d="M41,92.1l66-82l-23,67h24l-62,76l22-61H41z"/>
</g>
<g id="Layer_2" class="st0">
	<g id="XMLID_195_" class="st5">
		<path id="XMLID_217_" class="st6" d="M119.7,163.5l4.6-22.5c0.9-4.5-3.1-8.6-8.5-8.6H26.5c-5.4,0-9.4,4.1-8.5,8.6l4.6,22.5H119.7z
			"/>
		<path id="XMLID_215_" class="st7" d="M22.6,163.5l-4.7-23c-0.9-4.2,2.9-8.1,8-8.1h90.6c5,0,8.8,3.9,8,8.1l-4.7,23"/>
		<line id="XMLID_214_" class="st7" x1="71.1" y1="65.6" x2="71.1" y2="134.5"/>
		<ellipse id="XMLID_425_" class="st8" cx="71.2" cy="36.9" rx="43.4" ry="36.9"/>
		<path id="XMLID_213_" class="st7" d="M108,17.3c4.2,5.7,6.7,12.4,6.7,19.7c0,20.4-19.5,36.9-43.4,36.9c-24,0-43.4-16.5-43.4-36.9
			C27.8,16.5,47.2,0,71.2,0c4.7,0,9.1,0.6,13.3,1.8"/>
		<path id="XMLID_212_" class="st7" d="M92.3,4.6c3,1.4,5.8,3.1,8.3,5.1"/>
		<g id="XMLID_415_">
			<path id="XMLID_417_" class="st7" d="M88.6,22.9H67.1c-4.5,0-8.2,3.1-8.2,7l0,0c0,3.9,3.7,7,8.2,7H76c4.5,0,8.2,3.1,8.2,7l0,0
				c0,3.9-3.7,7-8.2,7H53.8"/>
			<line id="XMLID_416_" class="st7" x1="71.2" y1="11.4" x2="71.2" y2="62.5"/>
		</g>
		<path id="XMLID_206_" class="st9" d="M122.3,78.9c0,0,1.6,18.6-10.9,29.3c-12.5,10.6-34.4,9.3-34.4,9.3s-1.6-18.6,10.9-29.3
			C100.4,77.5,122.3,78.9,122.3,78.9z"/>
		<path id="XMLID_198_" class="st7" d="M122.3,78.9c0,0,1.6,18.6-10.9,29.3c-12.5,10.6-34.4,9.3-34.4,9.3s-1.6-18.6,10.9-29.3
			C100.4,77.5,122.3,78.9,122.3,78.9z"/>
		<path id="XMLID_197_" class="st9" d="M66.8,117.4c0,0,1.6-18.6-10.9-29.3c-12.5-10.6-34.4-9.3-34.4-9.3s-1.6,18.6,10.9,29.3
			C44.8,118.8,66.8,117.4,66.8,117.4z"/>
		<path id="XMLID_196_" class="st7" d="M66.8,117.4c0,0,1.6-18.6-10.9-29.3c-12.5-10.6-34.4-9.3-34.4-9.3s-1.6,18.6,10.9,29.3
			C44.8,118.8,66.8,117.4,66.8,117.4z"/>
	</g>
</g>
<g id="Layer_3" class="st0">
	<g class="st5">
		<path id="XMLID_1000_" class="st8" d="M34.7,16.1c-0.1,2.1-1.9,3.8-4,3.7L15.2,19c-2.1-0.1-3.8-1.9-3.7-4l0,0
			c0.1-2.1,1.9-3.8,4-3.7L31,12.1C33.1,12.2,34.8,14,34.7,16.1L34.7,16.1z"/>
		<path id="XMLID_999_" class="st8" d="M16.9,12.8c1.3,1.3,1.2,3.4-0.1,4.6l-7.8,7.6c-1.3,1.3-3.4,1.2-4.6-0.1l0,0
			c-1.3-1.3-1.2-3.4,0.1-4.6l7.8-7.6C13.6,11.5,15.7,11.5,16.9,12.8L16.9,12.8z"/>
		<path id="XMLID_998_" class="st8" d="M2.6,37.7l1.1-15.9l5.2,2.5c0,0,1.1,7.2,0,8.9C8,34.6,2.6,37.7,2.6,37.7z"/>
		<path id="XMLID_1008_" class="st7" d="M12.6,12.5c-0.1,0.1-0.2,0.2-0.3,0.2l-7.8,7.6c-0.8,0.8-1.1,1.9-0.9,3L2.6,36.9
			c0,0.4,0.4,0.6,0.7,0.4c1.5-0.9,4.9-3,5.6-4.1c0.9-1.4,0.4-6.1,0.2-8.1c0,0,0.1,0,0.1-0.1l6.2-6.1l15.2,0.7c1.9,0.1,3.7-1.1,4.1-3
			c0.5-2.4-1.2-4.6-3.6-4.7l-15.5-0.8C14.4,11.3,13.3,11.7,12.6,12.5z"/>
		<path id="XMLID_1002_" class="st6" d="M58.4,37.3l-12.2,7.6l-13.5,1c0,0-0.9-4.9,2.9-6.3l7.5-1.4c0,0,0.5-8.1,0.6-8.7
			c0.1-1.6-11.2-8-12.8-7.9c-0.9,0.1-13.6,1.1-13.6,1.1l-2.6,9.6c0,0,0,4.7,0.8,6.5c2.8,6.2-3.6,5.9-3.6,5.9L7.6,31.4L10.8,17
			l19-6.5l28.6,6V37.3z"/>
		<path id="XMLID_997_" class="st7" d="M58.4,37.3l-12.2,7.6l-13.5,1c0,0-0.9-4.9,2.9-6.3l7.5-1.4c0,0,0.5-8.1,0.6-8.7
			c0.1-1.6-11.2-8-12.8-7.9c-0.9,0.1-13.6,1.1-13.6,1.1l-2.6,9.6c0,0,0,4.7,0.8,6.5c2.8,6.2-3.6,5.9-3.6,5.9L7.6,31.4L10.8,17
			l19-6.5l28.6,6V37.3z"/>
		<path id="XMLID_269_" class="st9" d="M147.6,153.5V46.6c0-16.8-14.5-30.4-32.3-30.4H75.3H60.3c-1.1,0-2,0.8-2,1.8v17
			c0,1,0.9,1.9,2,1.9h14.9l34.7,0.2c7,0,12.6,5.4,12.6,11.9v104.6"/>
		<path id="XMLID_273_" class="st7" d="M147.6,92.5V46.6c0-16.8-14.5-30.4-32.3-30.4H75.3H60.3c-1.1,0-2,0.8-2,1.8v17
			c0,1,0.9,1.9,2,1.9h14.9l34.7,0.2c7,0,12.6,5.4,12.6,11.9v104.6"/>
		<line id="XMLID_398_" class="st7" x1="24.9" y1="55.8" x2="24.9" y2="70.5"/>
		<line id="XMLID_271_" class="st7" x1="32.6" y1="51.4" x2="32.6" y2="66.1"/>
		<line id="XMLID_400_" class="st7" x1="40.4" y1="63.8" x2="40.4" y2="73.2"/>
		<line id="XMLID_270_" class="st7" x1="17.2" y1="65.8" x2="17.2" y2="75.2"/>
	</g>
	<g id="XMLID_274_" class="st5">
		<path id="XMLID_302_" class="st8" d="M50.3,116.1l0.5,6.4c0,0.5-0.4,0.8-0.9,0.6l-12-5.8c-0.4-0.2-0.4-0.7-0.1-0.9l5.5-3.7
			C46.2,110.8,50.1,112.7,50.3,116.1z"/>
		<path id="XMLID_301_" class="st7" d="M50.3,116.1l0.5,6.4c0,0.5-0.4,0.8-0.9,0.6l-12-5.8c-0.4-0.2-0.4-0.7-0.1-0.9l5.5-3.7
			C46.2,110.8,50.1,112.7,50.3,116.1z"/>
		<path id="XMLID_300_" class="st8" d="M9.8,116.1l-0.5,6.4c0,0.5,0.4,0.8,0.9,0.6l12-5.8c0.4-0.2,0.4-0.7,0.1-0.9l-5.5-3.7
			C13.9,110.8,10.1,112.7,9.8,116.1z"/>
		<path id="XMLID_299_" class="st7" d="M9.8,116.1l-0.5,6.4c0,0.5,0.4,0.8,0.9,0.6l12-5.8c0.4-0.2,0.4-0.7,0.1-0.9l-5.5-3.7
			C13.9,110.8,10.1,112.7,9.8,116.1z"/>
		<path id="XMLID_291_" class="st6" d="M30.4,90.1c-5.5,0.1-9.9,4.7-9.8,10.2c0.1,5.5,4.7,9.9,10.2,9.8c5.5-0.1,9.9-4.7,9.8-10.2
			C40.4,94.4,35.9,90,30.4,90.1z"/>
		<path id="XMLID_290_" class="st7" d="M35.7,91.6c-1.6-0.9-3.4-1.5-5.3-1.4c-5.5,0.1-9.9,4.7-9.8,10.2c0.1,5.5,4.7,9.9,10.2,9.8
			c5.5-0.1,9.9-4.7,9.8-10.2c0-1.1-0.2-2.1-0.5-3.1"/>
		<path id="XMLID_289_" class="st7" d="M39.2,95.1c-0.4-0.7-0.9-1.3-1.4-1.9"/>
		<g id="XMLID_286_">
			<path id="XMLID_288_" class="st7" d="M34.5,96.3h-4.9c-1,0-1.9,0.8-1.9,1.9l0,0c0,1,0.8,1.9,1.9,1.9h2c1,0,1.9,0.8,1.9,1.9l0,0
				c0,1-0.8,1.9-1.9,1.9h-5.1"/>
			<line id="XMLID_287_" class="st7" x1="30.5" y1="93.2" x2="30.5" y2="107"/>
		</g>
		<polygon id="XMLID_632_" class="st10" points="26.6,149.6 20.8,149.6 20.2,141 26.6,141 		"/>
		<polygon id="XMLID_606_" class="st10" points="34.7,149.6 40.5,149.6 41.1,141 34.7,141 		"/>
		<polygon id="XMLID_575_" class="st7" points="26.6,149.6 20.8,149.6 20.2,141 26.6,141 		"/>
		<polygon id="XMLID_524_" class="st7" points="34.7,149.6 40.5,149.6 41.1,141 34.7,141 		"/>
		<ellipse id="XMLID_285_" class="st6" cx="30.7" cy="129.8" rx="17.9" ry="16.3"/>
		<path id="XMLID_284_" class="st8" d="M35.8,133.4c0,2.9-2.4,5.3-5.3,5.3c-2.9,0-5.3-2.4-5.3-5.3c0-2.9,2.4-5.3,5.3-5.3
			C33.5,128.1,35.8,130.5,35.8,133.4z"/>
		<ellipse id="XMLID_283_" class="st7" cx="30.7" cy="129.8" rx="17.9" ry="16.3"/>
		<path id="XMLID_282_" class="st7" d="M35.8,140.1c-1.3,1.3-3.2,2.2-5.3,2.2c-2.1,0-3.9-0.8-5.3-2.2"/>
		<path id="XMLID_281_" class="st7" d="M35.8,133.4c0,2.9-2.4,5.3-5.3,5.3c-2.9,0-5.3-2.4-5.3-5.3c0-2.9,2.4-5.3,5.3-5.3
			C33.5,128.1,35.8,130.5,35.8,133.4z"/>
		<g id="XMLID_278_">
			<path id="XMLID_280_" class="st7" d="M22.3,126.1c0-1.4,1.1-2.5,2.5-2.5c1.4,0,2.5,1.1,2.5,2.5"/>
			<path id="XMLID_279_" class="st7" d="M33.8,126.1c0-1.4,1.1-2.5,2.5-2.5s2.5,1.1,2.5,2.5"/>
		</g>
		<line id="XMLID_277_" class="st7" x1="27.7" y1="133.6" x2="29.4" y2="133.6"/>
		<line id="XMLID_275_" class="st7" x1="32" y1="133.6" x2="33.6" y2="133.6"/>
	</g>
</g>
<g id="Layer_4">
	<g id="XMLID_633_">
		<path id="XMLID_634_" class="st6" d="M11.2,160.9h104.4V35.5c0-1.2-1-2.2-2.2-2.2h-100c-1.2,0-2.2,1-2.2,2.2V160.9z"/>
		<path id="XMLID_630_" class="st7" d="M57,33.3H29.1h-8.9c-5,0-9.1,4.1-9.1,9.1v117"/>
		<line id="XMLID_631_" class="st7" x1="115.6" y1="160.9" x2="115.6" y2="96.4"/>
		<rect id="XMLID_629_" x="19.8" y="52.4" class="st8" width="87.2" height="108.5"/>
		<line id="XMLID_628_" class="st7" x1="52.3" y1="44.7" x2="57.5" y2="44.7"/>
		<path id="XMLID_854_" class="st6" d="M106.3,96.4l12.1-17.6c5.1-1.9,9.8-4.9,13.9-9c15.5-15.5,15.5-40.7,0-56.2
			c-15.5-15.5-40.7-15.5-56.2,0c-15.5,15.5-15.5,40.7,0,56.2c5.5,5.5,12.2,9,19.2,10.6L106.3,96.4z"/>
		<path id="XMLID_399_" class="st7" d="M106.3,96.4l12.1-17.6c5.1-1.9,9.8-4.9,13.9-9c15.5-15.5,15.5-40.7,0-56.2
			c-15.5-15.5-40.7-15.5-56.2,0c-15.5,15.5-15.5,40.7,0,56.2c5.5,5.5,12.2,9,19.2,10.6L106.3,96.4z"/>
		<polygon id="XMLID_626_" class="st9" points="19.7,130.3 19.7,159.5 38.5,159.4 38.5,114.5 		"/>
		<polygon id="XMLID_625_" class="st9" points="55,121.7 54.9,121.7 54.9,159.4 76.6,159.3 76.6,105.6 		"/>
		<polygon id="XMLID_623_" class="st10" points="38.7,114.4 38.5,114.5 38.5,159.4 54.9,159.4 54.9,121.7 		"/>
		<polygon id="XMLID_622_" class="st9" points="107,98.6 90,113.2 90,159.3 107,159.2 		"/>
		<polygon id="XMLID_621_" class="st10" points="90,113.2 76.6,105.6 76.6,159.3 90,159.3 90,113.2 		"/>
		<polyline id="XMLID_619_" class="st7" points="107,99.6 105.8,99.6 90,113.2 76.6,105.6 54.9,121.7 38.5,114.5 21.5,129 19.7,129 
					"/>
		<g id="XMLID_657_">
			<path id="XMLID_659_" class="st7" d="M117.5,26.8H99.6c-3.8,0-6.8,3.1-6.8,6.8l0,0c0,3.8,3.1,6.8,6.8,6.8h7.4
				c3.8,0,6.8,3.1,6.8,6.8l0,0c0,3.8-3.1,6.8-6.8,6.8H88.6"/>
			<line id="XMLID_658_" class="st7" x1="103" y1="15.5" x2="103" y2="65.4"/>
		</g>
	</g>
</g>
</svg>
