<?xml version="1.0" encoding="utf-8"?>
<!-- Generator: Adobe Illustrator 22.0.1, SVG Export Plug-In . SVG Version: 6.00 Build 0)  -->
<svg version="1.1" id="Layer_1" xmlns="http://www.w3.org/2000/svg" xmlns:xlink="http://www.w3.org/1999/xlink" x="0px" y="0px"
	 viewBox="0 0 979.8 284.7" style="enable-background:new 0 0 979.8 284.7;" xml:space="preserve">
<style type="text/css">
	.st0{display:none;fill:#3E72B8;}
	.st1{fill:#E4F3FA;}
	.st2{font-family:'ProximaNova-Bold';}
	.st3{font-size:158.8805px;}
	.st4{letter-spacing:-7;}
	.st5{fill:#2C374C;}
	.st6{fill:#39435A;}
	.st7{fill:#76C7C9;}
</style>
<rect x="-0.2" class="st0" width="980.3" height="284.7"/>
<text transform="matrix(1 0 0 1 218.019 197.6602)" class="st1 st2 st3 st4">MWMfund </text>
<g>
	<path class="st1" d="M129.5,43.5l45.1,78.2c2.4,4.2,2.4,9.5,0,13.8l-45.1,78.2c-2.4,4.2-7,6.9-12,6.9H144c4.9,0,9.4-2.6,12-6.9
		l45.1-78.2c2.4-4.2,2.4-9.5,0-13.8L156,43.5c-2.4-4.2-7-6.9-12-6.9h-26.5C122.5,36.6,127,39.3,129.5,43.5z"/>
	<path class="st5" d="M129.5,43.5l2,3.5c3.4,0,7,0.3,10.6,0.8c7.2,1.1,13.9,3,19.5,5.5l-5.7-9.9c-2.4-4.2-7-6.9-12-6.9h-26.5
		C122.5,36.6,127,39.3,129.5,43.5z"/>
	<path class="st1" d="M78.5,43.5l45.1,78.2c2.4,4.2,2.4,9.5,0,13.8l-45.1,78.2c-2.4,4.2-7,6.9-12,6.9H93c4.9,0,9.4-2.6,12-6.9
		l45.1-78.2c2.4-4.2,2.4-9.5,0-13.8L105,43.5c-2.4-4.2-7-6.9-12-6.9H66.6C71.5,36.6,76.1,39.3,78.5,43.5z"/>
	<path class="st1" d="M80.5,213.6l-45.1-78.2c-2.4-4.2-2.4-9.5,0-13.8l45.1-78.2c2.4-4.2,7-6.9,12-6.9H66c-4.9,0-9.4,2.6-12,6.9
		L8.9,121.7c-2.4,4.2-2.4,9.5,0,13.8l45.1,78.2c2.4,4.2,7,6.9,12,6.9h26.5C87.5,220.5,83,218,80.5,213.6z"/>
	<path class="st6" d="M106.6,213.6l-45.1-78.2c-2.4-4.2-2.4-9.5,0-13.8l45.1-78.2c2.4-4.2,7-6.9,12-6.9H92.1c-4.9,0-9.4,2.6-12,6.9
		L35,121.7c-2.4,4.2-2.4,9.5,0,13.8l45.1,78.2c2.4,4.2,7,6.9,12,6.9h26.5C113.6,220.5,109,218,106.6,213.6z"/>
	<path class="st7" d="M133.2,213.6l-45.1-78.2c-2.4-4.2-2.4-9.5,0-13.8l45.1-78.2c2.4-4.2,7-6.9,12-6.9h-26.5c-4.9,0-9.4,2.6-12,6.9
		l-45.1,78.2c-2.4,4.2-2.4,9.5,0,13.8l45.1,78.2c2.4,4.2,7,6.9,12,6.9h26.5C140.2,220.5,135.6,218,133.2,213.6z"/>
</g>
</svg>
