<?xml version="1.0" encoding="utf-8"?>
<!-- Generator: Adobe Illustrator 22.0.1, SVG Export Plug-In . SVG Version: 6.00 Build 0)  -->
<svg version="1.1" id="Layer_1" xmlns="http://www.w3.org/2000/svg" xmlns:xlink="http://www.w3.org/1999/xlink" x="0px" y="0px"
	 viewBox="0 0 895.5 182.3" style="enable-background:new 0 0 895.5 182.3;" xml:space="preserve">
<style type="text/css">
	.st0{fill:#39435A;}
	.st1{font-family:'Aller-Bold';}
	.st2{font-size:150px;}
	.st3{letter-spacing:-6;}
	.st4{fill:#5FB0E5;}
	.st5{font-family:'Aller-Regular';}
	.st6{fill:#2C374C;}
	.st7{fill:#D2E9F7;}
</style>
<text transform="matrix(1 0 0 1 208.4733 155.1169)" class="st0 st1 st2 st3">MWM</text>
<text transform="matrix(1 0 0 1 587.4733 155.1169)" class="st4 st5 st2 st3">fund</text>
<path class="st0" d="M124.7,9.6l42.6,73.8c2.3,4,2.3,9,0,13l-42.6,73.8c-2.3,4-6.6,6.5-11.3,6.5h25c4.6,0,8.9-2.5,11.3-6.5
	l42.6-73.8c2.3-4,2.3-9,0-13L149.7,9.6c-2.3-4-6.6-6.5-11.3-6.5h-25C118.1,3.1,122.4,5.6,124.7,9.6L124.7,9.6z"/>
<path class="st6" d="M124.7,9.6l1.9,3.3c3.2,0,6.6,0.3,10,0.8c6.8,1,13.1,2.8,18.4,5.2l-5.4-9.3c-2.3-4-6.6-6.5-11.3-6.5h-25
	C118.1,3.1,122.4,5.6,124.7,9.6L124.7,9.6z"/>
<path class="st0" d="M76.6,9.6l42.6,73.8c2.3,4,2.3,9,0,13l-42.6,73.8c-2.3,4-6.6,6.5-11.3,6.5h25c4.6,0,8.9-2.5,11.3-6.5l42.6-73.8
	c2.3-4,2.3-9,0-13L101.6,9.6c-2.3-4-6.6-6.5-11.3-6.5h-25C70,3.1,74.3,5.6,76.6,9.6z"/>
<path class="st7" d="M78.5,170.2L35.9,96.4c-2.3-4-2.3-9,0-13L78.5,9.6c2.3-4,6.6-6.5,11.3-6.5h-25c-4.6,0-8.9,2.5-11.3,6.5
	L10.9,83.4c-2.3,4-2.3,9,0,13l42.6,73.8c2.3,4,6.6,6.5,11.3,6.5h25C85.1,176.7,80.8,174.3,78.5,170.2L78.5,170.2z"/>
<path class="st0" d="M103.1,170.2L60.5,96.4c-2.3-4-2.3-9,0-13l42.6-73.8c2.3-4,6.6-6.5,11.3-6.5h-25c-4.6,0-8.9,2.5-11.3,6.5
	L35.5,83.4c-2.3,4-2.3,9,0,13l42.6,73.8c2.3,4,6.6,6.5,11.3,6.5h25C109.7,176.7,105.4,174.3,103.1,170.2z"/>
<path class="st4" d="M128.2,170.2L85.6,96.4c-2.3-4-2.3-9,0-13l42.6-73.8c2.3-4,6.6-6.5,11.3-6.5h-25c-4.6,0-8.9,2.5-11.3,6.5
	L60.6,83.4c-2.3,4-2.3,9,0,13l42.6,73.8c2.3,4,6.6,6.5,11.3,6.5h25C134.8,176.7,130.5,174.3,128.2,170.2z"/>
</svg>
