<?xml version="1.0" encoding="utf-8"?>
<!-- Generator: Adobe Illustrator 22.0.1, SVG Export Plug-In . SVG Version: 6.00 Build 0)  -->
<svg version="1.1" id="Layer_1" xmlns="http://www.w3.org/2000/svg" xmlns:xlink="http://www.w3.org/1999/xlink" x="0px" y="0px"
	 viewBox="0 0 979.8 284.7" style="enable-background:new 0 0 979.8 284.7;" xml:space="preserve">
<style type="text/css">
	.st0{fill:#39435A;}
	.st1{font-family:'ProximaNova-Bold';}
	.st2{font-size:150px;}
	.st3{letter-spacing:-6;}
	.st4{fill:#2C374C;}
	.st5{fill:#D2E9F7;}
	.st6{fill:#5FB0E5;}
</style>
<text transform="matrix(1 0 0 1 253.547 197.338)" class="st0 st1 st2 st3">MWMfund.</text>
<path class="st0" d="M138.8,51.8l42.6,73.8c2.3,4,2.3,9,0,13l-42.6,73.8c-2.3,4-6.6,6.5-11.3,6.5h25c4.6,0,8.9-2.5,11.3-6.5
	l42.6-73.8c2.3-4,2.3-9,0-13l-42.6-73.8c-2.3-4-6.6-6.5-11.3-6.5h-25C132.2,45.3,136.5,47.8,138.8,51.8L138.8,51.8z"/>
<path class="st4" d="M138.8,51.8l1.9,3.3c3.2,0,6.6,0.3,10,0.8c6.8,1,13.1,2.8,18.4,5.2l-5.4-9.3c-2.3-4-6.6-6.5-11.3-6.5h-25
	C132.2,45.3,136.5,47.8,138.8,51.8L138.8,51.8z"/>
<path class="st0" d="M90.7,51.8l42.6,73.8c2.3,4,2.3,9,0,13l-42.6,73.8c-2.3,4-6.6,6.5-11.3,6.5h25c4.6,0,8.9-2.5,11.3-6.5
	l42.6-73.8c2.3-4,2.3-9,0-13l-42.6-73.8c-2.3-4-6.6-6.5-11.3-6.5h-25C84.1,45.3,88.4,47.8,90.7,51.8z"/>
<path class="st5" d="M92.6,212.4L50,138.6c-2.3-4-2.3-9,0-13l42.6-73.8c2.3-4,6.6-6.5,11.3-6.5h-25c-4.6,0-8.9,2.5-11.3,6.5
	L25,125.6c-2.3,4-2.3,9,0,13l42.6,73.8c2.3,4,6.6,6.5,11.3,6.5h25C99.2,218.9,94.9,216.5,92.6,212.4L92.6,212.4z"/>
<path class="st0" d="M117.2,212.4l-42.6-73.8c-2.3-4-2.3-9,0-13l42.6-73.8c2.3-4,6.6-6.5,11.3-6.5h-25c-4.6,0-8.9,2.5-11.3,6.5
	l-42.6,73.8c-2.3,4-2.3,9,0,13l42.6,73.8c2.3,4,6.6,6.5,11.3,6.5h25C123.8,218.9,119.5,216.5,117.2,212.4z"/>
<path class="st6" d="M142.3,212.4l-42.6-73.8c-2.3-4-2.3-9,0-13l42.6-73.8c2.3-4,6.6-6.5,11.3-6.5h-25c-4.6,0-8.9,2.5-11.3,6.5
	l-42.6,73.8c-2.3,4-2.3,9,0,13l42.6,73.8c2.3,4,6.6,6.5,11.3,6.5h25C148.9,218.9,144.6,216.5,142.3,212.4z"/>
</svg>
